# This file uses centimeters as units for non-parametric coordinates.

mtllib suelo1.mtl
g default
v -47.314159 -3.000000 47.314159
v 47.314159 -3.000000 47.314159
v -50.000000 0.000000 50.000000
v 50.000000 0.000000 50.000000
v -50.000000 0.000000 -50.000000
v 50.000000 0.000000 -50.000000
v -47.314159 -3.000000 -47.314159
v 47.314159 -3.000000 -47.314159
vt 0.026858 0.026858
vt 0.973142 0.026858
vt 1.000000 0.000000
vt 0.000000 0.000000
vt 1.000000 1.000000
vt 0.000000 1.000000
vt 0.973142 0.973142
vt 0.026858 0.973142
vn 0.000000 -0.667020 0.745040
vn 0.000000 -0.667020 0.745040
vn 0.000000 -0.667020 0.745040
vn 0.000000 -0.667020 0.745040
vn 0.000000 1.000000 0.000000
vn 0.000000 1.000000 0.000000
vn 0.000000 1.000000 0.000000
vn 0.000000 1.000000 0.000000
vn 0.000000 -0.667020 -0.745040
vn 0.000000 -0.667020 -0.745040
vn 0.000000 -0.667020 -0.745040
vn 0.000000 -0.667020 -0.745040
vn 0.000000 -1.000000 0.000000
vn 0.000000 -1.000000 0.000000
vn 0.000000 -1.000000 0.000000
vn 0.000000 -1.000000 0.000000
vn 0.745040 -0.667020 0.000000
vn 0.745040 -0.667020 0.000000
vn 0.745040 -0.667020 0.000000
vn 0.745040 -0.667020 0.000000
vn -0.745040 -0.667020 0.000000
vn -0.745040 -0.667020 0.000000
vn -0.745040 -0.667020 0.000000
vn -0.745040 -0.667020 0.000000
s off
g pCube1
usemtl pCube1SG1
f 1/1/1 2/2/2 4/3/3 3/4/4
f 3/4/5 4/3/6 6/5/7 5/6/8
f 5/6/9 6/5/10 8/7/11 7/8/12
f 7/8/13 8/7/14 2/2/15 1/1/16
f 2/2/17 8/7/18 6/5/19 4/3/20
f 7/8/21 1/1/22 3/4/23 5/6/24
